<svg xmlns="http://www.w3.org/2000/svg" width="300" height="100" viewBox="0 0 300 100" fill="none">
<g id="phone_o3_dark_pairing_error"><defs><clipPath id="scr_o3_dark_pairing_error"><rect x="28.70" y="14.85" width="30.60" height="70.30" rx="4.3"/></clipPath></defs><ellipse cx="44.00" cy="89.05" rx="17.0" ry="2.0" fill="#000000" opacity="0.34"/><rect x="60.55" y="36.00" width="1.0" height="5.0" rx="0.5" fill="#383A3F" stroke="#383A3F" stroke-width="0.35"/><rect x="60.55" y="43.50" width="1.0" height="9.0" rx="0.5" fill="#383A3F" stroke="#383A3F" stroke-width="0.35"/><rect x="27.00" y="13.15" width="34.00" height="73.70" rx="5.8" fill="#4E5157" stroke="#383A3F" stroke-width="0.6"/><rect x="27.90" y="14.05" width="32.20" height="71.90" rx="5.0" fill="#1E1F22"/><rect x="28.70" y="14.85" width="30.60" height="70.30" rx="4.3" fill="#2B2D30"/><circle cx="44.00" cy="18.45" r="0.95" fill="#141517"/><rect x="31.80" y="17.75" width="5.2" height="1.6" rx="0.8" fill="#A8ADBD" opacity="0.8"/><rect x="50.30" y="18.65" width="0.95" height="1.10" rx="0.3" fill="#A8ADBD" opacity="0.85"/><rect x="51.80" y="18.05" width="0.95" height="1.70" rx="0.3" fill="#A8ADBD" opacity="0.85"/><rect x="53.30" y="17.45" width="0.95" height="2.30" rx="0.3" fill="#A8ADBD" opacity="0.85"/><rect x="55.30" y="17.65" width="3.3" height="2.1" rx="0.5" fill="none" stroke="#A8ADBD" stroke-width="0.45" opacity="0.85"/><rect x="55.90" y="18.15" width="2.1" height="1.1" rx="0.25" fill="#A8ADBD" opacity="0.85"/><g transform="translate(44.00, 43.00)"><path d="M -5.9 -1.5 C -3.7 -2.35, -1.3 -2.25, 0 -1.7 C 1.3 -2.25, 3.7 -2.35, 5.9 -1.5 C 6.25 -1.36, 6.25 -0.55, 6.0 0.1 C 5.65 2.05, 4.45 2.95, 2.9 2.95 C 1.35 2.95, 0.55 2.0, 0.38 0.25 C 0.24 -0.3, -0.24 -0.3, -0.38 0.25 C -0.55 2.0, -1.35 2.95, -2.9 2.95 C -4.45 2.95, -5.65 2.05, -6.0 0.1 C -6.25 -0.55, -6.25 -1.36, -5.9 -1.5 Z" fill="#DFE1E5"/></g><rect x="35.80" y="51.20" width="16.4" height="2.0" rx="1.0" fill="#DFE1E5" opacity="0.90"/><rect x="38.40" y="55.10" width="11.2" height="1.6" rx="0.8" fill="#6C707E" opacity="0.95"/><rect x="34.80" y="60.40" width="18.4" height="5.4" rx="2.7" fill="#E5534B"/><rect x="39.80" y="62.50" width="8.4" height="1.2" rx="0.6" fill="#FFFFFF" opacity="0.92"/><rect x="39.40" y="81.75" width="9.2" height="1.0" rx="0.5" fill="#6C707E" opacity="0.95"/></g><g id="error_o3_dark_pairing_error"><defs><radialGradient id="errhl_o3_dark_pairing_error" cx="50%" cy="50%" r="50%"><stop offset="55%" stop-color="#E5534B" stop-opacity="0.16"/><stop offset="100%" stop-color="#E5534B" stop-opacity="0"/></radialGradient></defs><circle cx="65.0" cy="50.0" r="2.4" fill="#E5534B"/><circle cx="155.0" cy="50.0" r="2.4" fill="#E5534B"/><line x1="67.4" y1="50.0" x2="97.0" y2="50.0" stroke="#E5534B" stroke-width="1.8" stroke-linecap="round" stroke-dasharray="3.5 3.0" stroke-dashoffset="0.2"/><line x1="123.0" y1="50.0" x2="152.6" y2="50.0" stroke="#E5534B" stroke-width="1.8" stroke-linecap="round" stroke-dasharray="3.5 3.0" stroke-dashoffset="0.2"/><circle cx="110.0" cy="50.0" r="15.0" fill="url(#errhl_o3_dark_pairing_error)"/><circle cx="110.0" cy="50.0" r="9.5" fill="#E5534B"/><line x1="110.00" y1="45.70" x2="110.00" y2="50.60" stroke="#FFFFFF" stroke-width="2.0" stroke-linecap="round"/><circle cx="110.00" cy="53.60" r="1.15" fill="#FFFFFF"/></g><g id="glasses_o3_dark_pairing_error" transform="translate(215.00, 48.70) scale(1.000)"><ellipse cx="0" cy="22.0" rx="47" ry="2.6" fill="#000000" opacity="0.34"/><path d="
        M -55.8 -11.6
        C -42.5 -15.8, -19.0 -15.5, -6.5 -12.2
        C -2.5 -11.2, 2.5 -11.2, 6.5 -12.2
        C 19.0 -15.5, 42.5 -15.8, 55.8 -11.6
        C 57.4 -11.0, 57.6 -7.5, 56.2 -5.0
        C 54.4 -1.8, 52.2 1.8, 51.0 6.2
        C 49.2 13.8, 42.5 18.4, 30.5 18.4
        C 18.5 18.4, 11.8 12.6, 9.2 2.0
        C 8.2 -2.2, 6.2 -5.2, 3.8 -5.8
        C 1.2 -6.4, -1.2 -6.4, -3.8 -5.8
        C -6.2 -5.2, -8.2 -2.2, -9.2 2.0
        C -11.8 12.6, -18.5 18.4, -30.5 18.4
        C -42.5 18.4, -49.2 13.8, -51.0 6.2
        C -52.2 1.8, -54.4 -1.8, -56.2 -5.0
        C -57.6 -7.5, -57.4 -11.0, -55.8 -11.6
        Z" fill="#43454A" stroke="#2B2D30" stroke-width="0.8" stroke-linejoin="round"/><path d="M -54.2 -11.1 C -41.5 -14.9, -19.0 -14.6, -6.5 -11.5 C -2.0 -10.5, 2.0 -10.5, 6.5 -11.5 C 19.0 -14.6, 41.5 -14.9, 54.2 -11.1" fill="none" stroke="#A8ADBD" stroke-width="0.85" stroke-linecap="round" opacity="0.55"/><path d="
        M -48.4 -9.6
        C -38.5 -12.1, -21.0 -11.9, -12.5 -9.2
        C -10.2 -8.5, -9.8 -5.0, -10.8 0.5
        C -12.5 9.8, -18.2 14.8, -30.2 14.8
        C -41.2 14.8, -46.8 10.5, -48.4 3.2
        C -49.4 -2.0, -50.0 -8.8, -48.4 -9.6
        Z" fill="#5A5F68" stroke="#383A3F" stroke-width="0.65"/><path d="
        M 48.4 -9.6
        C 38.5 -12.1, 21.0 -11.9, 12.5 -9.2
        C 10.2 -8.5, 9.8 -5.0, 10.8 0.5
        C 12.5 9.8, 18.2 14.8, 30.2 14.8
        C 41.2 14.8, 46.8 10.5, 48.4 3.2
        C 49.4 -2.0, 50.0 -8.8, 48.4 -9.6
        Z" fill="#5A5F68" stroke="#383A3F" stroke-width="0.65"/><defs><radialGradient id="camw_o3_dark_pairing_error_l" cx="62%" cy="68%" r="78%"><stop offset="0%" stop-color="#26282C" stop-opacity="1"/><stop offset="62%" stop-color="#141517" stop-opacity="1"/><stop offset="100%" stop-color="#0A0B0C" stop-opacity="1"/></radialGradient></defs><circle cx="-52.80" cy="-8.40" r="1.87" fill="#0C0D0F" opacity="0.38"/><circle cx="-52.80" cy="-8.40" r="1.45" fill="url(#camw_o3_dark_pairing_error_l)"/><circle cx="-52.80" cy="-8.40" r="1.45" fill="none" stroke="#7C818E" stroke-width="0.30" opacity="0.50"/><ellipse cx="-53.32" cy="-8.92" rx="0.42" ry="0.23" transform="rotate(-38 -53.32 -8.92)" fill="#FFFFFF" opacity="0.76"/><defs><radialGradient id="camw_o3_dark_pairing_error_r" cx="62%" cy="68%" r="78%"><stop offset="0%" stop-color="#26282C" stop-opacity="1"/><stop offset="62%" stop-color="#141517" stop-opacity="1"/><stop offset="100%" stop-color="#0A0B0C" stop-opacity="1"/></radialGradient></defs><circle cx="52.80" cy="-8.40" r="1.87" fill="#0C0D0F" opacity="0.38"/><circle cx="52.80" cy="-8.40" r="1.45" fill="url(#camw_o3_dark_pairing_error_r)"/><circle cx="52.80" cy="-8.40" r="1.45" fill="none" stroke="#7C818E" stroke-width="0.30" opacity="0.50"/><ellipse cx="52.28" cy="-8.92" rx="0.42" ry="0.23" transform="rotate(-38 52.28 -8.92)" fill="#FFFFFF" opacity="0.76"/></g>
</svg>
